<svg width="64" height="64" viewBox="0 0 64 64" fill="none" xmlns="http://www.w3.org/2000/svg">
<path d="M36.375 39.5L17.0888 58.7863C13.6371 62.2378 8.04062 62.2378 4.58884 58.7863C1.13705 55.3344 1.13705 49.7378 4.58884 46.2863L23.875 27M11.403 52H11.375M57.8075 35.9272C54.0903 39.6438 47.0962 39.4994 36.3725 39.4994C29.4731 39.4994 23.8793 33.8972 23.8757 26.9978C23.8757 16.2813 23.7312 9.28328 27.4484 5.56681C31.1653 1.85038 32.8072 2.00084 49.2731 2.00084C50.8644 1.99403 51.6653 3.91841 50.5403 5.04356L42.0622 13.5223C39.9103 15.6744 39.9044 19.1635 42.0566 21.3154C44.2087 23.4673 47.6981 23.4675 49.8506 21.3159L58.3309 12.8392C59.4562 11.7143 61.3809 12.5151 61.3741 14.1061C61.3741 30.5694 61.5247 32.2109 57.8075 35.9272Z" stroke="url(#paint0_linear_484_1233)" stroke-width="4" stroke-linecap="round"/>
<defs>
<linearGradient id="paint0_linear_484_1233" x1="2" y1="2" x2="64.098" y2="4.99954" gradientUnits="userSpaceOnUse">
<stop stop-color="#39B54A"/>
<stop offset="1" stop-color="#003808"/>
</linearGradient>
</defs>
</svg>
